<svg xmlns="http://www.w3.org/2000/svg" width="900" height="500" viewBox="0 0 900 500">
  <defs>
    <style>
      text { font-family: -apple-system, BlinkMacSystemFont, "Segoe UI", Roboto, sans-serif; }
      .title { font-size: 16px; font-weight: bold; fill: #111827; }
      .subtitle { font-size: 11px; fill: #6b7280; }
      .axis-label { font-size: 11px; fill: #4b5563; }
      .tick { font-size: 10px; fill: #6b7280; }
      .grid { stroke: #e5e7eb; stroke-width: 1; }
      .curve { fill: none; stroke: #2563eb; stroke-width: 2.5; stroke-linecap: round; stroke-linejoin: round; }
      .drink-line { stroke: #9ca3af; stroke-width: 1; stroke-dasharray: 4,2; }
      .drink-label { font-size: 9px; fill: #6b7280; }
      .disclaimer { font-size: 9px; fill: #9ca3af; font-style: italic; }
    </style>
  </defs>
  <rect width="900" height="500" fill="#ffffff"/>
  <text x="60" y="30" class="title">BAC Curve — 20:00 to 00:00</text>
  <text x="60" y="48" class="subtitle">Formula: watson · 49 points · Step: 5min</text>
  <rect x="60" y="260" width="800" height="160" fill="#86efac" opacity="0.25"/>
  <rect x="60" y="100" width="800" height="160" fill="#fde047" opacity="0.25"/>
  <rect x="60" y="-60" width="800" height="160" fill="#fdba74" opacity="0.25"/>
  <line x1="60" y1="420" x2="860" y2="420" class="grid"/>
  <text x="52" y="423" text-anchor="end" class="tick">0.0‰</text>
  <line x1="60" y1="340" x2="860" y2="340" class="grid"/>
  <text x="52" y="343" text-anchor="end" class="tick">0.2‰</text>
  <line x1="60" y1="260" x2="860" y2="260" class="grid"/>
  <text x="52" y="263" text-anchor="end" class="tick">0.4‰</text>
  <line x1="60" y1="180" x2="860" y2="180" class="grid"/>
  <text x="52" y="183" text-anchor="end" class="tick">0.6‰</text>
  <line x1="60" y1="100" x2="860" y2="100" class="grid"/>
  <text x="52" y="103" text-anchor="end" class="tick">0.8‰</text>
  <line x1="60" y1="420" x2="60" y2="425" stroke="#9ca3af" stroke-width="1"/>
  <text x="60" y="438" text-anchor="middle" class="tick">20:00</text>
  <line x1="126.66666666666666" y1="420" x2="126.66666666666666" y2="425" stroke="#9ca3af" stroke-width="1"/>
  <text x="126.66666666666666" y="438" text-anchor="middle" class="tick">20:20</text>
  <line x1="193.33333333333331" y1="420" x2="193.33333333333331" y2="425" stroke="#9ca3af" stroke-width="1"/>
  <text x="193.33333333333331" y="438" text-anchor="middle" class="tick">20:40</text>
  <line x1="260" y1="420" x2="260" y2="425" stroke="#9ca3af" stroke-width="1"/>
  <text x="260" y="438" text-anchor="middle" class="tick">21:00</text>
  <line x1="326.66666666666663" y1="420" x2="326.66666666666663" y2="425" stroke="#9ca3af" stroke-width="1"/>
  <text x="326.66666666666663" y="438" text-anchor="middle" class="tick">21:20</text>
  <line x1="393.33333333333337" y1="420" x2="393.33333333333337" y2="425" stroke="#9ca3af" stroke-width="1"/>
  <text x="393.33333333333337" y="438" text-anchor="middle" class="tick">21:40</text>
  <line x1="460" y1="420" x2="460" y2="425" stroke="#9ca3af" stroke-width="1"/>
  <text x="460" y="438" text-anchor="middle" class="tick">22:00</text>
  <line x1="526.6666666666667" y1="420" x2="526.6666666666667" y2="425" stroke="#9ca3af" stroke-width="1"/>
  <text x="526.6666666666667" y="438" text-anchor="middle" class="tick">22:20</text>
  <line x1="593.3333333333333" y1="420" x2="593.3333333333333" y2="425" stroke="#9ca3af" stroke-width="1"/>
  <text x="593.3333333333333" y="438" text-anchor="middle" class="tick">22:40</text>
  <line x1="660" y1="420" x2="660" y2="425" stroke="#9ca3af" stroke-width="1"/>
  <text x="660" y="438" text-anchor="middle" class="tick">23:00</text>
  <line x1="726.6666666666667" y1="420" x2="726.6666666666667" y2="425" stroke="#9ca3af" stroke-width="1"/>
  <text x="726.6666666666667" y="438" text-anchor="middle" class="tick">23:20</text>
  <line x1="793.3333333333333" y1="420" x2="793.3333333333333" y2="425" stroke="#9ca3af" stroke-width="1"/>
  <text x="793.3333333333333" y="438" text-anchor="middle" class="tick">23:40</text>
  <line x1="860" y1="420" x2="860" y2="425" stroke="#9ca3af" stroke-width="1"/>
  <text x="860" y="438" text-anchor="middle" class="tick">00:00</text>
  <line x1="60" y1="60" x2="60" y2="420" class="drink-line"/>
  <text x="60" y="54" text-anchor="middle" class="drink-label">500ml</text>
  <line x1="260" y1="60" x2="260" y2="420" class="drink-line"/>
  <text x="260" y="54" text-anchor="middle" class="drink-label">500ml</text>
  <line x1="60" y1="420" x2="860" y2="420" stroke="#374151" stroke-width="1.5"/>
  <line x1="60" y1="60" x2="60" y2="420" stroke="#374151" stroke-width="1.5"/>
  <text x="18" y="240" text-anchor="middle" transform="rotate(-90, 18, 240)" class="axis-label">BAC (‰)</text>
  <path d="M 60 420 L 76.66666666666666 420 L 93.33333333333333 416 L 110 408 L 126.66666666666666 392 L 143.33333333333334 376 L 160 356 L 176.66666666666669 340 L 193.33333333333331 324 L 210 316 L 226.66666666666669 308 L 243.33333333333331 304 L 260 300 L 276.66666666666663 296 L 293.33333333333337 284 L 310 272 L 326.66666666666663 252.00000000000003 L 343.33333333333337 236 L 360 211.99999999999997 L 376.66666666666663 192 L 393.33333333333337 176.00000000000003 L 410 164 L 426.66666666666663 156 L 443.33333333333337 152 L 460 148 L 476.6666666666667 144 L 493.3333333333333 144 L 510 144 L 526.6666666666667 148 L 543.3333333333333 148 L 560 152 L 576.6666666666667 152 L 593.3333333333333 156 L 610 160 L 626.6666666666667 164 L 643.3333333333333 168.00000000000003 L 660 172 L 676.6666666666667 176.00000000000003 L 693.3333333333333 180 L 710 188.00000000000003 L 726.6666666666667 192 L 743.3333333333333 196 L 760 199.99999999999997 L 776.6666666666667 204 L 793.3333333333333 211.99999999999997 L 810 216 L 826.6666666666667 220 L 843.3333333333333 224.00000000000003 L 860 228" class="curve"/>
  <circle cx="476.6666666666667" cy="144" r="4" fill="#dc2626" stroke="#ffffff" stroke-width="2"/>
  <text x="476.6666666666667" y="134" text-anchor="middle" font-size="10" font-weight="bold" fill="#dc2626">Peak: 0.69‰</text>
  <text x="60" y="480" class="disclaimer">estimate, not legally/medically valid</text>
  <rect x="660" y="62" width="10" height="10" fill="#86efac" opacity="0.6" stroke="#9ca3af" stroke-width="0.5"/>
  <text x="676" y="70" font-size="9" fill="#4b5563">Below Sweet Spot</text>
  <rect x="660" y="78" width="10" height="10" fill="#fde047" opacity="0.6" stroke="#9ca3af" stroke-width="0.5"/>
  <text x="676" y="86" font-size="9" fill="#4b5563">Sweet Spot</text>
  <rect x="660" y="94" width="10" height="10" fill="#fdba74" opacity="0.6" stroke="#9ca3af" stroke-width="0.5"/>
  <text x="676" y="102" font-size="9" fill="#4b5563">Caution</text>
  <rect x="660" y="110" width="10" height="10" fill="#fca5a5" opacity="0.6" stroke="#9ca3af" stroke-width="0.5"/>
  <text x="676" y="118" font-size="9" fill="#4b5563">Danger</text>
</svg>

